<mxfile host="app.diagrams.net" modified="2020-07-29T23:00:58.558Z" agent="5.0 (Windows)" etag="vbrt01PPLT6CSBCbHq_I" version="13.5.5" type="github">
  <diagram id="C5RBs43oDa-KdzZeNtuy" name="Page-1">
    <mxGraphModel dx="1264" dy="854" grid="1" gridSize="10" guides="1" tooltips="1" connect="1" arrows="1" fold="1" page="1" pageScale="1" pageWidth="827" pageHeight="1169" math="0" shadow="0">
      <root>
        <mxCell id="WIyWlLk6GJQsqaUBKTNV-0" />
        <mxCell id="WIyWlLk6GJQsqaUBKTNV-1" parent="WIyWlLk6GJQsqaUBKTNV-0" />
        <mxCell id="HHsFAeuTzGe_5ZLNcvfG-2" value="" style="edgeStyle=orthogonalEdgeStyle;rounded=0;orthogonalLoop=1;jettySize=auto;html=1;" parent="WIyWlLk6GJQsqaUBKTNV-1" source="WIyWlLk6GJQsqaUBKTNV-3" target="HHsFAeuTzGe_5ZLNcvfG-0" edge="1">
          <mxGeometry relative="1" as="geometry" />
        </mxCell>
        <mxCell id="WIyWlLk6GJQsqaUBKTNV-3" value="New Application from EnergyHub" style="rounded=1;whiteSpace=wrap;html=1;fontSize=12;glass=0;strokeWidth=1;shadow=0;" parent="WIyWlLk6GJQsqaUBKTNV-1" vertex="1">
          <mxGeometry x="145" y="80" width="150" height="40" as="geometry" />
        </mxCell>
        <mxCell id="HHsFAeuTzGe_5ZLNcvfG-4" style="edgeStyle=orthogonalEdgeStyle;rounded=0;orthogonalLoop=1;jettySize=auto;html=1;entryX=1;entryY=0.5;entryDx=0;entryDy=0;" parent="WIyWlLk6GJQsqaUBKTNV-1" source="WIyWlLk6GJQsqaUBKTNV-10" target="HHsFAeuTzGe_5ZLNcvfG-0" edge="1">
          <mxGeometry relative="1" as="geometry">
            <mxPoint x="360" y="210" as="targetPoint" />
            <Array as="points">
              <mxPoint x="360" y="280" />
              <mxPoint x="360" y="175" />
            </Array>
          </mxGeometry>
        </mxCell>
        <mxCell id="HHsFAeuTzGe_5ZLNcvfG-38" style="edgeStyle=orthogonalEdgeStyle;rounded=0;orthogonalLoop=1;jettySize=auto;html=1;entryX=0.5;entryY=0;entryDx=0;entryDy=0;" parent="WIyWlLk6GJQsqaUBKTNV-1" source="WIyWlLk6GJQsqaUBKTNV-10" target="HHsFAeuTzGe_5ZLNcvfG-37" edge="1">
          <mxGeometry relative="1" as="geometry" />
        </mxCell>
        <mxCell id="WIyWlLk6GJQsqaUBKTNV-10" value="Address standardized?" style="rhombus;whiteSpace=wrap;html=1;shadow=0;fontFamily=Helvetica;fontSize=12;align=center;strokeWidth=1;spacing=6;spacingTop=-4;" parent="WIyWlLk6GJQsqaUBKTNV-1" vertex="1">
          <mxGeometry x="170" y="230" width="100" height="80" as="geometry" />
        </mxCell>
        <mxCell id="HHsFAeuTzGe_5ZLNcvfG-3" value="" style="edgeStyle=orthogonalEdgeStyle;rounded=0;orthogonalLoop=1;jettySize=auto;html=1;" parent="WIyWlLk6GJQsqaUBKTNV-1" source="HHsFAeuTzGe_5ZLNcvfG-0" target="WIyWlLk6GJQsqaUBKTNV-10" edge="1">
          <mxGeometry relative="1" as="geometry" />
        </mxCell>
        <mxCell id="HHsFAeuTzGe_5ZLNcvfG-0" value="&lt;div&gt;Standardize the applicants&#39; address &lt;br&gt;&lt;/div&gt;&lt;div&gt;with USPS system&lt;/div&gt;" style="rounded=1;whiteSpace=wrap;html=1;" parent="WIyWlLk6GJQsqaUBKTNV-1" vertex="1">
          <mxGeometry x="105" y="140" width="230" height="70" as="geometry" />
        </mxCell>
        <mxCell id="HHsFAeuTzGe_5ZLNcvfG-5" value="No" style="text;html=1;strokeColor=none;fillColor=none;align=center;verticalAlign=middle;whiteSpace=wrap;rounded=0;" parent="WIyWlLk6GJQsqaUBKTNV-1" vertex="1">
          <mxGeometry x="360" y="240" width="40" height="20" as="geometry" />
        </mxCell>
        <mxCell id="HHsFAeuTzGe_5ZLNcvfG-33" style="edgeStyle=orthogonalEdgeStyle;rounded=0;orthogonalLoop=1;jettySize=auto;html=1;entryX=0.5;entryY=0;entryDx=0;entryDy=0;" parent="WIyWlLk6GJQsqaUBKTNV-1" source="HHsFAeuTzGe_5ZLNcvfG-6" target="HHsFAeuTzGe_5ZLNcvfG-28" edge="1">
          <mxGeometry relative="1" as="geometry" />
        </mxCell>
        <mxCell id="HHsFAeuTzGe_5ZLNcvfG-6" value="&lt;div align=&quot;center&quot;&gt;Connect to DER Warehouse&lt;br&gt;&lt;/div&gt;" style="rounded=1;whiteSpace=wrap;html=1;align=center;" parent="WIyWlLk6GJQsqaUBKTNV-1" vertex="1">
          <mxGeometry x="120" y="400" width="200" height="40" as="geometry" />
        </mxCell>
        <mxCell id="HHsFAeuTzGe_5ZLNcvfG-8" value="Yes" style="text;html=1;strokeColor=none;fillColor=none;align=center;verticalAlign=middle;whiteSpace=wrap;rounded=0;" parent="WIyWlLk6GJQsqaUBKTNV-1" vertex="1">
          <mxGeometry x="220" y="320" width="40" height="20" as="geometry" />
        </mxCell>
        <mxCell id="u-XyicLIdqL0nX7QHhL3-16" style="edgeStyle=orthogonalEdgeStyle;rounded=0;orthogonalLoop=1;jettySize=auto;html=1;" edge="1" parent="WIyWlLk6GJQsqaUBKTNV-1" source="HHsFAeuTzGe_5ZLNcvfG-9" target="HHsFAeuTzGe_5ZLNcvfG-22">
          <mxGeometry relative="1" as="geometry" />
        </mxCell>
        <mxCell id="HHsFAeuTzGe_5ZLNcvfG-9" value="Matching account number with CCB" style="rounded=1;whiteSpace=wrap;html=1;" parent="WIyWlLk6GJQsqaUBKTNV-1" vertex="1">
          <mxGeometry x="70" y="600" width="120" height="60" as="geometry" />
        </mxCell>
        <mxCell id="HHsFAeuTzGe_5ZLNcvfG-25" value="" style="edgeStyle=orthogonalEdgeStyle;rounded=0;orthogonalLoop=1;jettySize=auto;html=1;" parent="WIyWlLk6GJQsqaUBKTNV-1" source="HHsFAeuTzGe_5ZLNcvfG-10" target="HHsFAeuTzGe_5ZLNcvfG-22" edge="1">
          <mxGeometry relative="1" as="geometry">
            <Array as="points">
              <mxPoint x="310" y="680" />
              <mxPoint x="220" y="680" />
            </Array>
          </mxGeometry>
        </mxCell>
        <mxCell id="HHsFAeuTzGe_5ZLNcvfG-10" value="Matching customer address with CCB" style="rounded=1;whiteSpace=wrap;html=1;" parent="WIyWlLk6GJQsqaUBKTNV-1" vertex="1">
          <mxGeometry x="250" y="600" width="120" height="60" as="geometry" />
        </mxCell>
        <mxCell id="HHsFAeuTzGe_5ZLNcvfG-15" value="" style="edgeStyle=orthogonalEdgeStyle;rounded=0;orthogonalLoop=1;jettySize=auto;html=1;" parent="WIyWlLk6GJQsqaUBKTNV-1" source="HHsFAeuTzGe_5ZLNcvfG-11" target="HHsFAeuTzGe_5ZLNcvfG-13" edge="1">
          <mxGeometry relative="1" as="geometry" />
        </mxCell>
        <mxCell id="HHsFAeuTzGe_5ZLNcvfG-16" style="edgeStyle=orthogonalEdgeStyle;rounded=0;orthogonalLoop=1;jettySize=auto;html=1;exitX=0.5;exitY=1;exitDx=0;exitDy=0;" parent="WIyWlLk6GJQsqaUBKTNV-1" source="HHsFAeuTzGe_5ZLNcvfG-11" target="HHsFAeuTzGe_5ZLNcvfG-12" edge="1">
          <mxGeometry relative="1" as="geometry" />
        </mxCell>
        <mxCell id="HHsFAeuTzGe_5ZLNcvfG-11" value="Customer Care Billing (CCB) Dataframe" style="rounded=1;whiteSpace=wrap;html=1;" parent="WIyWlLk6GJQsqaUBKTNV-1" vertex="1">
          <mxGeometry x="550" y="780" width="180" height="50" as="geometry" />
        </mxCell>
        <mxCell id="HHsFAeuTzGe_5ZLNcvfG-26" value="" style="edgeStyle=orthogonalEdgeStyle;rounded=0;orthogonalLoop=1;jettySize=auto;html=1;" parent="WIyWlLk6GJQsqaUBKTNV-1" source="HHsFAeuTzGe_5ZLNcvfG-12" target="HHsFAeuTzGe_5ZLNcvfG-19" edge="1">
          <mxGeometry relative="1" as="geometry" />
        </mxCell>
        <mxCell id="HHsFAeuTzGe_5ZLNcvfG-12" value="Account Dataframe" style="rounded=1;whiteSpace=wrap;html=1;" parent="WIyWlLk6GJQsqaUBKTNV-1" vertex="1">
          <mxGeometry x="500" y="870" width="130" height="40" as="geometry" />
        </mxCell>
        <mxCell id="HHsFAeuTzGe_5ZLNcvfG-27" value="" style="edgeStyle=orthogonalEdgeStyle;rounded=0;orthogonalLoop=1;jettySize=auto;html=1;" parent="WIyWlLk6GJQsqaUBKTNV-1" source="HHsFAeuTzGe_5ZLNcvfG-13" target="HHsFAeuTzGe_5ZLNcvfG-19" edge="1">
          <mxGeometry relative="1" as="geometry" />
        </mxCell>
        <mxCell id="HHsFAeuTzGe_5ZLNcvfG-13" value="Address Dataframe" style="rounded=1;whiteSpace=wrap;html=1;" parent="WIyWlLk6GJQsqaUBKTNV-1" vertex="1">
          <mxGeometry x="650" y="870" width="130" height="40" as="geometry" />
        </mxCell>
        <mxCell id="HHsFAeuTzGe_5ZLNcvfG-18" style="edgeStyle=orthogonalEdgeStyle;rounded=0;orthogonalLoop=1;jettySize=auto;html=1;exitX=0.5;exitY=1;exitDx=0;exitDy=0;entryX=0.5;entryY=0;entryDx=0;entryDy=0;" parent="WIyWlLk6GJQsqaUBKTNV-1" source="HHsFAeuTzGe_5ZLNcvfG-14" target="HHsFAeuTzGe_5ZLNcvfG-11" edge="1">
          <mxGeometry relative="1" as="geometry" />
        </mxCell>
        <mxCell id="HHsFAeuTzGe_5ZLNcvfG-14" value="Application Dataframe" style="rounded=1;whiteSpace=wrap;html=1;" parent="WIyWlLk6GJQsqaUBKTNV-1" vertex="1">
          <mxGeometry x="560" y="710" width="160" height="40" as="geometry" />
        </mxCell>
        <mxCell id="HHsFAeuTzGe_5ZLNcvfG-19" value="Result Dataframe" style="rounded=1;whiteSpace=wrap;html=1;" parent="WIyWlLk6GJQsqaUBKTNV-1" vertex="1">
          <mxGeometry x="550" y="950" width="180" height="40" as="geometry" />
        </mxCell>
        <mxCell id="u-XyicLIdqL0nX7QHhL3-1" value="" style="edgeStyle=orthogonalEdgeStyle;rounded=0;orthogonalLoop=1;jettySize=auto;html=1;" edge="1" parent="WIyWlLk6GJQsqaUBKTNV-1" source="HHsFAeuTzGe_5ZLNcvfG-22" target="u-XyicLIdqL0nX7QHhL3-0">
          <mxGeometry relative="1" as="geometry" />
        </mxCell>
        <mxCell id="HHsFAeuTzGe_5ZLNcvfG-22" value="Combine both results" style="rounded=1;whiteSpace=wrap;html=1;" parent="WIyWlLk6GJQsqaUBKTNV-1" vertex="1">
          <mxGeometry x="130" y="700" width="180" height="40" as="geometry" />
        </mxCell>
        <mxCell id="HHsFAeuTzGe_5ZLNcvfG-34" value="" style="edgeStyle=orthogonalEdgeStyle;rounded=0;orthogonalLoop=1;jettySize=auto;html=1;" parent="WIyWlLk6GJQsqaUBKTNV-1" source="HHsFAeuTzGe_5ZLNcvfG-28" target="HHsFAeuTzGe_5ZLNcvfG-29" edge="1">
          <mxGeometry relative="1" as="geometry" />
        </mxCell>
        <mxCell id="HHsFAeuTzGe_5ZLNcvfG-28" value="Parsing the CCB addresses" style="rounded=1;whiteSpace=wrap;html=1;" parent="WIyWlLk6GJQsqaUBKTNV-1" vertex="1">
          <mxGeometry x="125" y="460" width="190" height="40" as="geometry" />
        </mxCell>
        <mxCell id="HHsFAeuTzGe_5ZLNcvfG-35" style="edgeStyle=orthogonalEdgeStyle;rounded=0;orthogonalLoop=1;jettySize=auto;html=1;" parent="WIyWlLk6GJQsqaUBKTNV-1" source="HHsFAeuTzGe_5ZLNcvfG-29" target="HHsFAeuTzGe_5ZLNcvfG-9" edge="1">
          <mxGeometry relative="1" as="geometry" />
        </mxCell>
        <mxCell id="HHsFAeuTzGe_5ZLNcvfG-36" style="edgeStyle=orthogonalEdgeStyle;rounded=0;orthogonalLoop=1;jettySize=auto;html=1;" parent="WIyWlLk6GJQsqaUBKTNV-1" source="HHsFAeuTzGe_5ZLNcvfG-29" target="HHsFAeuTzGe_5ZLNcvfG-10" edge="1">
          <mxGeometry relative="1" as="geometry" />
        </mxCell>
        <mxCell id="HHsFAeuTzGe_5ZLNcvfG-29" value="Parsing the customers&#39; entity name" style="rounded=1;whiteSpace=wrap;html=1;" parent="WIyWlLk6GJQsqaUBKTNV-1" vertex="1">
          <mxGeometry x="110" y="520" width="220" height="40" as="geometry" />
        </mxCell>
        <mxCell id="HHsFAeuTzGe_5ZLNcvfG-39" style="edgeStyle=orthogonalEdgeStyle;rounded=0;orthogonalLoop=1;jettySize=auto;html=1;entryX=0.5;entryY=0;entryDx=0;entryDy=0;" parent="WIyWlLk6GJQsqaUBKTNV-1" source="HHsFAeuTzGe_5ZLNcvfG-37" target="HHsFAeuTzGe_5ZLNcvfG-6" edge="1">
          <mxGeometry relative="1" as="geometry" />
        </mxCell>
        <mxCell id="HHsFAeuTzGe_5ZLNcvfG-37" value="Parsing USPS addresses" style="rounded=1;whiteSpace=wrap;html=1;" parent="WIyWlLk6GJQsqaUBKTNV-1" vertex="1">
          <mxGeometry x="120" y="340" width="200" height="40" as="geometry" />
        </mxCell>
        <mxCell id="u-XyicLIdqL0nX7QHhL3-0" value="Append final result back to EnergyHub csv file" style="rounded=1;whiteSpace=wrap;html=1;" vertex="1" parent="WIyWlLk6GJQsqaUBKTNV-1">
          <mxGeometry x="120" y="770" width="200" height="60" as="geometry" />
        </mxCell>
      </root>
    </mxGraphModel>
  </diagram>
</mxfile>
